<svg width="1206" height="1256" viewBox="0 0 1206 1256" fill="none" xmlns="http://www.w3.org/2000/svg">
<g filter="url(#filter0_f_73_381)">
<path d="M117.27 638.739C76.1025 610.298 73.6719 529.278 111.841 457.776C150.01 386.274 206.382 344.79 236.332 388.942C251.717 411.621 274.796 596.74 244.231 591.003C140.213 571.48 158.437 667.18 117.27 638.739Z" fill="#A0947D"/>
</g>
<g filter="url(#filter1_f_73_381)">
<path d="M119.437 626.576C80.4837 599.664 78.6256 522.174 115.287 453.496C151.949 384.818 205.737 344.726 233.946 386.748C248.436 408.334 269.332 585.262 240.325 579.994C141.609 562.067 158.39 653.488 119.437 626.576Z" fill="#91826E"/>
</g>
<g filter="url(#filter2_f_73_381)">
<path d="M120.883 619.795C86.3568 595.941 86.5067 523.891 121.218 458.866C155.93 393.84 205.427 354.892 229.899 393.135C242.469 412.778 265.891 571.071 237.079 574.17C128.626 585.837 145.5 644.598 120.883 619.795Z" fill="#93866D"/>
</g>
<g filter="url(#filter3_f_73_381)">
<path d="M125.317 613.766C89.8633 576.851 93.5949 532.345 132.213 444.929C160.655 391.648 197.054 394.532 222.193 414.949C241.292 430.461 260.031 562.929 232.786 566.087C203.945 569.429 194.279 569.011 176.202 575.648C147.448 586.205 139.049 628.065 125.317 613.766Z" fill="#97836E"/>
</g>
<g filter="url(#filter4_f_73_381)">
<path d="M124.182 613.258C87.5449 576.24 94.0826 529.445 130.008 446.735C156.813 396.521 186.687 434.715 219.132 421.468C239.717 413.064 265.891 570.63 238.72 572.574C209.958 574.632 220.261 564.545 202.375 570.213C173.924 579.229 138.372 627.597 124.182 613.258Z" fill="#816E5F"/>
</g>
<g filter="url(#filter5_f_73_381)">
<path d="M122.527 615.242C90.7325 581.726 94.0043 491.093 132.143 435.028C158.589 385.488 188.287 444.171 218.339 429.75C237.406 420.6 260.863 561.46 236.072 564.77C209.83 568.275 221.298 562.459 204.607 567.184C176.137 575.245 134.842 628.224 122.527 615.242Z" fill="#615353"/>
</g>
<g filter="url(#filter6_f_73_381)">
<path d="M129.353 608.592C101.069 578.802 103.504 492.21 137.358 442.47C160.824 398.511 193.635 478.92 220.334 466.146C237.273 458.042 252.442 545.426 230.411 548.341C207.09 551.426 185.293 574.365 170.462 578.544C145.164 585.672 140.309 620.131 129.353 608.592Z" fill="#1F2C3D"/>
</g>
<g filter="url(#filter7_f_73_381)">
<path d="M106.511 569.497C86.2905 546.404 93.3733 472.711 122.692 427.865C143.582 388.731 173.246 443.696 197.42 457.063C209.877 463.951 215.731 517.422 198.417 521.604C180.088 526.031 152.083 536.106 140.294 540.804C120.185 548.816 114.343 578.442 106.511 569.497Z" fill="url(#paint0_angular_73_381)"/>
</g>
<g filter="url(#filter8_f_73_381)">
<path d="M880.616 95.3574C1083.13 145.217 1194.54 399.957 1129.45 664.336C1064.36 928.714 887.865 1115.69 711.12 1004.96C620.334 948.086 294.741 383.243 425.826 371.453C871.924 331.328 678.097 45.4979 880.616 95.3574Z" fill="#A0947D"/>
</g>
<g filter="url(#filter9_f_73_381)">
<path d="M887.102 136.079C1078.73 183.257 1183.39 427.359 1120.87 681.295C1058.36 935.231 890.585 1115.26 723.568 1009.58C637.778 955.294 331.302 414.301 455.483 402.552C878.089 362.565 695.475 88.9012 887.102 136.079Z" fill="#91826E"/>
</g>
<g filter="url(#filter10_f_73_381)">
<path d="M889.725 159.023C1059.58 200.839 1149.28 429.646 1090.09 670.077C1030.89 910.508 879.082 1082.69 731.952 985.341C656.377 935.337 363.024 455.962 475.924 417.851C900.908 274.39 758.854 104.466 889.725 159.023Z" fill="#93866D"/>
</g>
<g filter="url(#filter11_f_73_381)">
<path d="M879.317 182.504C1069.3 264.866 1109.96 409.772 1063 725.095C1014.5 922.099 863.34 948.669 735.852 908.545C638.99 878.06 396.988 476.051 503.466 439.291C616.179 400.379 655.883 392.219 720.838 353.416C824.158 291.693 805.731 150.602 879.317 182.504Z" fill="#97836E"/>
</g>
<g filter="url(#filter12_f_73_381)">
<path d="M884.539 183.008C1079.44 264.534 1111.6 419.459 1069.66 717.203C1023.95 902.869 854.978 810.976 740.069 884.858C667.166 931.732 363.564 457.367 471.263 424.532C585.268 389.774 556.152 431.895 621.546 396.354C725.567 339.82 809.045 151.43 884.539 183.008Z" fill="#816E5F"/>
</g>
<g filter="url(#filter13_f_73_381)">
<path d="M888.752 175.09C1059.64 250.252 1159.98 541.096 1075.67 756.455C1030.57 939.629 836.632 782.538 732.895 857.799C667.079 905.548 395.435 481.535 491.771 446.699C593.747 409.824 554.554 439.536 616.286 408.159C721.585 354.637 822.562 145.976 888.752 175.09Z" fill="#615353"/>
</g>
<g filter="url(#filter14_f_73_381)">
<path d="M869.43 202.89C1021.42 269.672 1120.09 546.873 1045.21 737.953C1005.2 900.489 771.408 677.505 679.198 744.247C620.696 786.591 449.678 524.154 535.325 493.283C625.987 460.605 685.586 366.412 740.464 338.595C834.073 291.146 810.558 177.023 869.43 202.89Z" fill="#1F2C3D"/>
</g>
<g filter="url(#filter15_f_73_381)">
<path d="M1011.05 304.539C1121.95 357.984 1185.62 598.806 1122.99 769.906C1087.37 914.602 898.227 769.276 783.487 750.579C724.361 740.944 633.606 576.995 698.547 546.729C767.29 514.692 868.18 455.233 910.077 428.756C981.544 383.594 968.086 283.838 1011.05 304.539Z" fill="url(#paint1_angular_73_381)"/>
</g>
<g filter="url(#filter16_f_73_381)">
<path d="M1079.73 721.827C1126.54 853.538 1005.12 1081.14 836.656 1152.36C707.4 1227.14 665.804 963.334 591.552 853.544C553.289 796.968 599.816 602.235 670.666 634.827C745.664 669.329 864.512 710.966 915.127 726.966C1001.46 754.258 1061.6 670.81 1079.73 721.827Z" fill="url(#paint2_angular_73_381)"/>
</g>
<defs>
<filter id="filter0_f_73_381" x="9.73438" y="295.771" width="324.516" height="423.292" filterUnits="userSpaceOnUse" color-interpolation-filters="sRGB">
<feFlood flood-opacity="0" result="BackgroundImageFix"/>
<feBlend mode="normal" in="SourceGraphic" in2="BackgroundImageFix" result="shape"/>
<feGaussianBlur stdDeviation="37.5" result="effect1_foregroundBlur_73_381"/>
</filter>
<filter id="filter1_f_73_381" x="38.9609" y="319.587" width="265.922" height="361.985" filterUnits="userSpaceOnUse" color-interpolation-filters="sRGB">
<feFlood flood-opacity="0" result="BackgroundImageFix"/>
<feBlend mode="normal" in="SourceGraphic" in2="BackgroundImageFix" result="shape"/>
<feGaussianBlur stdDeviation="25" result="effect1_foregroundBlur_73_381"/>
</filter>
<filter id="filter2_f_73_381" x="85.0859" y="368.033" width="175.758" height="267.809" filterUnits="userSpaceOnUse" color-interpolation-filters="sRGB">
<feFlood flood-opacity="0" result="BackgroundImageFix"/>
<feBlend mode="normal" in="SourceGraphic" in2="BackgroundImageFix" result="shape"/>
<feGaussianBlur stdDeviation="5" result="effect1_foregroundBlur_73_381"/>
</filter>
<filter id="filter3_f_73_381" x="0.84375" y="301.336" width="345.617" height="415.375" filterUnits="userSpaceOnUse" color-interpolation-filters="sRGB">
<feFlood flood-opacity="0" result="BackgroundImageFix"/>
<feBlend mode="normal" in="SourceGraphic" in2="BackgroundImageFix" result="shape"/>
<feGaussianBlur stdDeviation="50" result="effect1_foregroundBlur_73_381"/>
</filter>
<filter id="filter4_f_73_381" x="58.0875" y="378.28" width="233.88" height="279.216" filterUnits="userSpaceOnUse" color-interpolation-filters="sRGB">
<feFlood flood-opacity="0" result="BackgroundImageFix"/>
<feBlend mode="normal" in="SourceGraphic" in2="BackgroundImageFix" result="shape"/>
<feGaussianBlur stdDeviation="20.8" result="effect1_foregroundBlur_73_381"/>
</filter>
<filter id="filter5_f_73_381" x="65.9906" y="379.854" width="215.698" height="272.325" filterUnits="userSpaceOnUse" color-interpolation-filters="sRGB">
<feFlood flood-opacity="0" result="BackgroundImageFix"/>
<feBlend mode="normal" in="SourceGraphic" in2="BackgroundImageFix" result="shape"/>
<feGaussianBlur stdDeviation="17.45" result="effect1_foregroundBlur_73_381"/>
</filter>
<filter id="filter6_f_73_381" x="41.2906" y="360.598" width="268.708" height="318.937" filterUnits="userSpaceOnUse" color-interpolation-filters="sRGB">
<feFlood flood-opacity="0" result="BackgroundImageFix"/>
<feBlend mode="normal" in="SourceGraphic" in2="BackgroundImageFix" result="shape"/>
<feGaussianBlur stdDeviation="34.3" result="effect1_foregroundBlur_73_381"/>
</filter>
<filter id="filter7_f_73_381" x="5.20781" y="324.234" width="293.819" height="336.729" filterUnits="userSpaceOnUse" color-interpolation-filters="sRGB">
<feFlood flood-opacity="0" result="BackgroundImageFix"/>
<feBlend mode="normal" in="SourceGraphic" in2="BackgroundImageFix" result="shape"/>
<feGaussianBlur stdDeviation="44.9" result="effect1_foregroundBlur_73_381"/>
</filter>
<filter id="filter8_f_73_381" x="320.133" y="14.5386" width="902.898" height="1097.9" filterUnits="userSpaceOnUse" color-interpolation-filters="sRGB">
<feFlood flood-opacity="0" result="BackgroundImageFix"/>
<feBlend mode="normal" in="SourceGraphic" in2="BackgroundImageFix" result="shape"/>
<feGaussianBlur stdDeviation="37.5" result="effect1_foregroundBlur_73_381"/>
</filter>
<filter id="filter9_f_73_381" x="376.266" y="80.6318" width="812.703" height="1009.76" filterUnits="userSpaceOnUse" color-interpolation-filters="sRGB">
<feFlood flood-opacity="0" result="BackgroundImageFix"/>
<feBlend mode="normal" in="SourceGraphic" in2="BackgroundImageFix" result="shape"/>
<feGaussianBlur stdDeviation="25" result="effect1_foregroundBlur_73_381"/>
</filter>
<filter id="filter10_f_73_381" x="440.375" y="138.574" width="677.945" height="884.461" filterUnits="userSpaceOnUse" color-interpolation-filters="sRGB">
<feFlood flood-opacity="0" result="BackgroundImageFix"/>
<feBlend mode="normal" in="SourceGraphic" in2="BackgroundImageFix" result="shape"/>
<feGaussianBlur stdDeviation="5" result="effect1_foregroundBlur_73_381"/>
</filter>
<filter id="filter11_f_73_381" x="376.938" y="77.8707" width="803.891" height="946.642" filterUnits="userSpaceOnUse" color-interpolation-filters="sRGB">
<feFlood flood-opacity="0" result="BackgroundImageFix"/>
<feBlend mode="normal" in="SourceGraphic" in2="BackgroundImageFix" result="shape"/>
<feGaussianBlur stdDeviation="50" result="effect1_foregroundBlur_73_381"/>
</filter>
<filter id="filter12_f_73_381" x="406.791" y="137.865" width="720.645" height="791.848" filterUnits="userSpaceOnUse" color-interpolation-filters="sRGB">
<feFlood flood-opacity="0" result="BackgroundImageFix"/>
<feBlend mode="normal" in="SourceGraphic" in2="BackgroundImageFix" result="shape"/>
<feGaussianBlur stdDeviation="20.8" result="effect1_foregroundBlur_73_381"/>
</filter>
<filter id="filter13_f_73_381" x="436.42" y="137.418" width="704.55" height="759.025" filterUnits="userSpaceOnUse" color-interpolation-filters="sRGB">
<feFlood flood-opacity="0" result="BackgroundImageFix"/>
<feBlend mode="normal" in="SourceGraphic" in2="BackgroundImageFix" result="shape"/>
<feGaussianBlur stdDeviation="17.45" result="effect1_foregroundBlur_73_381"/>
</filter>
<filter id="filter14_f_73_381" x="443.166" y="130.523" width="696.247" height="736.709" filterUnits="userSpaceOnUse" color-interpolation-filters="sRGB">
<feFlood flood-opacity="0" result="BackgroundImageFix"/>
<feBlend mode="normal" in="SourceGraphic" in2="BackgroundImageFix" result="shape"/>
<feGaussianBlur stdDeviation="34.3" result="effect1_foregroundBlur_73_381"/>
</filter>
<filter id="filter15_f_73_381" x="586.294" y="211.948" width="651.163" height="711.239" filterUnits="userSpaceOnUse" color-interpolation-filters="sRGB">
<feFlood flood-opacity="0" result="BackgroundImageFix"/>
<feBlend mode="normal" in="SourceGraphic" in2="BackgroundImageFix" result="shape"/>
<feGaussianBlur stdDeviation="44.9" result="effect1_foregroundBlur_73_381"/>
</filter>
<filter id="filter16_f_73_381" x="488.005" y="541.375" width="691.647" height="713.935" filterUnits="userSpaceOnUse" color-interpolation-filters="sRGB">
<feFlood flood-opacity="0" result="BackgroundImageFix"/>
<feBlend mode="normal" in="SourceGraphic" in2="BackgroundImageFix" result="shape"/>
<feGaussianBlur stdDeviation="44.9" result="effect1_foregroundBlur_73_381"/>
</filter>
<radialGradient id="paint0_angular_73_381" cx="0" cy="0" r="1" gradientUnits="userSpaceOnUse" gradientTransform="translate(140.132 516.58) rotate(-132.496) scale(61.1599 98.6971)">
<stop offset="0.0242868" stop-color="#CDC6B0"/>
<stop offset="0.365" stop-color="#554E4F" stop-opacity="0.56"/>
<stop offset="1" stop-color="#47434A"/>
</radialGradient>
<radialGradient id="paint1_angular_73_381" cx="0" cy="0" r="1" gradientUnits="userSpaceOnUse" gradientTransform="translate(941.098 505.473) rotate(24.6023) scale(246.361 345.332)">
<stop offset="0.0242868" stop-color="#CDC6B0"/>
<stop offset="0.365" stop-color="#554E4F" stop-opacity="0.56"/>
<stop offset="1" stop-color="#47434A"/>
</radialGradient>
<radialGradient id="paint2_angular_73_381" cx="0" cy="0" r="1" gradientUnits="userSpaceOnUse" gradientTransform="translate(735.326 869.389) rotate(81.6479) scale(322.392 503.186)">
<stop offset="0.474138" stop-color="#212C3D"/>
<stop offset="0.614052" stop-color="#434248"/>
<stop offset="0.975125" stop-color="#B0B0B0"/>
</radialGradient>
</defs>
</svg>
