<svg width="583" height="583" viewBox="0 0 583 583" fill="none" xmlns="http://www.w3.org/2000/svg">
<path d="M291.388 0.727539L291.447 291.135L402.632 22.8551L291.548 291.179L496.938 85.8696L291.631 291.259L559.955 180.177L291.674 291.364L582.082 291.421L291.674 291.479L559.955 402.664L291.631 291.581L496.938 496.97L291.548 291.663L402.632 559.987L291.447 291.706L291.388 582.114L291.332 291.706L180.145 559.987L291.227 291.663L85.8374 496.97L291.147 291.581L22.8229 402.664L291.103 291.479L0.695312 291.421L291.103 291.364L22.8229 180.177L291.147 291.259L85.8374 85.8696L291.227 291.179L180.145 22.8551L291.332 291.135L291.388 0.727539Z" stroke="#B0B0B0" stroke-width="10"/>
</svg>
