<svg width="1156" height="157" viewBox="0 0 1156 157" fill="none" xmlns="http://www.w3.org/2000/svg">
<path d="M106.711 54.9238C98.9502 50.9533 86.6614 45.9 70.7795 45.9C44.4136 45.9 27.8098 64.8664 27.8098 87.9673C27.8098 111.068 44.2331 130.035 69.8771 130.035C86.6778 130.035 99.4917 125.162 107.613 121.011V146.835C100.935 150.445 86.12 155.498 67.8919 155.498C28.7121 155.498 0 126.064 0 87.9673C0 49.8704 28.7121 20.4364 68.7943 20.4364C87.0388 20.4364 100.033 25.8507 106.711 29.4602V54.9238Z" fill="#F2ECE7"/>
<path d="M115.916 152.971V22.9793H143.726V152.988H115.916V152.971Z" fill="#F2ECE7"/>
<path d="M213.422 154.957H212.339L148.238 22.9793H178.574L195.539 60.5348C202.216 75.5143 208.172 88.3446 212.684 100.978C216.474 91.7736 224.415 73.3486 230.207 60.5348L247.171 22.9793H277.327L213.406 154.973L213.422 154.957Z" fill="#F2ECE7"/>
<path d="M282.019 152.971V22.9793H309.829V152.988H282.019V152.971Z" fill="#F2ECE7"/>
<path d="M691.569 154.957L620.248 86.5235L611.766 79.1239V152.972H584.498V20.9941H585.58L656.721 89.4275L665.023 96.827V22.9794H692.472V154.973H691.569V154.957Z" fill="#F2ECE7"/>
<path d="M810.437 154.957L739.116 86.5235L730.634 79.1239V152.972H703.366V20.9941H704.449L775.589 89.4275L783.891 96.827V22.9794H811.34V154.973H810.437V154.957Z" fill="#F2ECE7"/>
<path d="M822.744 152.971V22.9793H906.337V46.2772H850.537V75.8917H897.838V98.2871H850.537V129.706H909.044V153.004H822.744V152.971Z" fill="#F2ECE7"/>
<path d="M1017.48 54.9238C1009.71 50.9533 997.442 45.9 981.544 45.9C955.178 45.9 938.574 64.8664 938.574 87.9673C938.574 111.068 954.998 130.035 980.642 130.035C997.442 130.035 1010.26 125.162 1018.38 121.011V146.835C1011.7 150.445 996.884 155.498 978.656 155.498C939.477 155.498 910.764 126.064 910.764 87.9673C910.764 49.8704 939.477 20.4364 979.559 20.4364C997.803 20.4364 1010.8 25.8507 1017.48 29.4602V54.9238Z" fill="#F2ECE7"/>
<path d="M1093.29 46.2617V152.972H1065.48V46.2617H1029.19V22.9638H1129.76V46.2617H1093.29Z" fill="#F2ECE7"/>
<path d="M508.468 20.125C483.48 20.125 460.544 33.7592 448.583 55.7116L420.511 107.262C413.57 119.896 400.297 127.755 385.892 127.755C364.12 127.755 346.4 110.051 346.4 88.2794C346.4 66.5074 364.12 48.7879 385.892 48.7879C399.936 48.7879 413.029 56.3515 420.068 68.5255L420.872 69.9201L421.643 68.4926L435.703 42.6845L436.015 42.1103L435.572 41.6345C422.561 27.7706 404.908 20.1414 385.892 20.1414C348.304 20.1414 317.738 50.7075 317.738 88.2958C317.738 125.884 348.304 156.45 385.892 156.45C411.946 156.45 435.802 141.487 447.188 118.14C458.575 141.471 482.414 156.45 508.485 156.45C546.073 156.45 576.639 125.884 576.639 88.2958C576.639 50.7075 546.073 20.1414 508.485 20.1414L508.468 20.125ZM547.96 88.2794C547.96 110.051 530.24 127.755 508.468 127.755C486.696 127.755 468.993 110.051 468.993 88.2794C468.993 66.5074 486.696 48.7879 508.468 48.7879C530.24 48.7879 547.96 66.5074 547.96 88.2794Z" fill="#FBAD18"/>
<path d="M1137.05 1.69906V13.8894H1135.64V1.69906H1131.54V0.517761H1141.19V1.71547H1137.05V1.69906Z" fill="#F2ECE7"/>
<path d="M1145.8 4.60384L1145.42 4.07882C1145.44 4.5054 1145.44 4.91558 1145.44 5.32575V13.8902H1144.06V0.288818H1144.07L1150.03 8.09852L1155.98 0.288818H1156V13.9066H1154.62V5.32575C1154.62 4.91558 1154.62 4.5054 1154.64 4.07882C1154.46 4.37415 1154.15 4.76791 1153.92 5.11246L1150.03 10.1494L1145.8 4.58744V4.60384Z" fill="#F2ECE7"/>
</svg>
