<svg width="43" height="39" viewBox="0 0 43 39" fill="none" xmlns="http://www.w3.org/2000/svg">
<path d="M41.88 1.00629L41.88 1.00631C42.4395 1.50814 42.4395 2.29702 41.88 2.79885L30.566 12.9467L30.566 12.9468C29.975 13.477 28.9968 13.477 28.4058 12.9468L28.4055 12.9465C27.8454 12.4447 27.8454 11.6562 28.4055 11.1544L28.4058 11.1542L39.7188 1.0063L39.3851 0.634298L39.7188 1.00629C40.3098 0.476094 41.289 0.476093 41.88 1.00629ZM14.566 27.2981L14.566 27.2981L3.25225 37.4454L3.5861 37.8176L3.25224 37.4454C2.6612 37.9756 1.68259 37.9756 1.09156 37.4454L1.09153 37.4454C0.531989 36.9436 0.531989 36.1551 1.09153 35.6533L1.09156 35.6532L12.4053 25.5051C12.9963 24.9749 13.9749 24.9749 14.5659 25.5051L14.566 25.5051C15.1255 26.0069 15.1255 26.7963 14.566 27.2981ZM28.4055 25.5053L28.4058 25.5051C28.9968 24.9749 29.975 24.9749 30.566 25.5051L41.88 35.6532C42.4395 36.1551 42.4395 36.9436 41.88 37.4454C41.289 37.9756 40.3098 37.9756 39.7188 37.4454L28.4058 27.2981L28.4055 27.2979C27.8454 26.7961 27.8454 26.0071 28.4055 25.5053ZM3.25222 1.00629L3.25224 1.00631L14.5659 11.1542L14.566 11.1542C15.1255 11.6561 15.1255 12.4449 14.566 12.9467L14.5659 12.9468C13.9749 13.477 12.9963 13.477 12.4053 12.9468L12.4053 12.9467L1.09156 2.79885L1.09153 2.79882C0.531989 2.297 0.531989 1.50816 1.09153 1.00633L1.09158 1.00629C1.68261 0.476093 2.66119 0.476093 3.25222 1.00629Z" fill="#232323" stroke="#232323"/>
</svg>
