<svg width="16" height="16" viewBox="0 0 16 16" fill="none" xmlns="http://www.w3.org/2000/svg">
<path d="M15.0036 8.00004C15.0052 8.20512 14.9428 8.4056 14.8252 8.57362C14.7076 8.74163 14.5406 8.86883 14.3473 8.93754L10.3823 10.3794L8.94108 14.3438C8.87004 14.5352 8.74214 14.7002 8.57455 14.8168C8.40696 14.9333 8.20771 14.9958 8.00358 14.9958C7.79944 14.9958 7.6002 14.9333 7.43261 14.8168C7.26502 14.7002 7.13711 14.5352 7.06608 14.3438L5.6242 10.375L1.65983 8.93754C1.46845 8.8665 1.3034 8.7386 1.18684 8.57101C1.07029 8.40342 1.00781 8.20417 1.00781 8.00004C1.00781 7.7959 1.07029 7.59666 1.18684 7.42907C1.3034 7.26148 1.46845 7.13357 1.65983 7.06254L5.62858 5.62066L7.06608 1.65629C7.13711 1.46491 7.26502 1.29986 7.43261 1.1833C7.6002 1.06675 7.79944 1.00427 8.00358 1.00427C8.20771 1.00427 8.40696 1.06675 8.57455 1.1833C8.74214 1.29986 8.87004 1.46491 8.94108 1.65629L10.383 5.62504L14.3473 7.06254C14.5406 7.13124 14.7076 7.25844 14.8252 7.42646C14.9428 7.59447 15.0052 7.79495 15.0036 8.00004Z" fill="#232323"/>
</svg>
